<?xml version="1.0" standalone="no"?>
<!DOCTYPE svg PUBLIC "-//W3C//DTD SVG 20010904//EN"
 "http://www.w3.org/TR/2001/REC-SVG-20010904/DTD/svg10.dtd">
<svg version="1.0" xmlns="http://www.w3.org/2000/svg"
 width="260.000000pt" height="260.000000pt" viewBox="0 0 260.000000 260.000000"
 preserveAspectRatio="xMidYMid meet">
<metadata>
Created by potrace 1.11, written by Peter Selinger 2001-2013
</metadata>
<g transform="translate(0.000000,260.000000) scale(0.100000,-0.100000)"
fill="#000000" stroke="none">
<path d="M1139 2595 c-2 -2 -22 -6 -44 -9 -205 -31 -442 -135 -606 -266 -154
-123 -310 -326 -377 -490 -13 -30 -27 -64 -32 -75 -16 -36 -50 -158 -64 -235
-8 -42 -14 -138 -14 -220 0 -129 5 -170 34 -319 3 -13 16 -56 30 -95 14 -39
26 -75 27 -81 1 -5 4 -12 7 -15 3 -3 27 -49 55 -103 27 -53 53 -97 57 -97 4 0
8 -6 8 -12 0 -7 11 -26 25 -42 14 -16 25 -32 25 -36 0 -7 164 -175 202 -207
142 -117 397 -242 548 -268 19 -3 60 -10 90 -15 58 -9 367 -7 410 4 28 6 82
19 90 21 56 13 91 24 175 58 55 22 117 51 137 64 21 12 40 23 43 23 3 0 39 23
81 52 87 60 232 199 291 279 37 51 143 224 143 234 0 3 9 24 19 48 11 23 29
71 41 107 19 62 24 81 36 140 3 14 9 43 14 65 9 39 7 356 -3 405 -10 54 -38
166 -46 190 -5 14 -11 32 -14 40 -2 8 -6 20 -8 25 -5 17 -69 149 -79 165 -5 8
-23 38 -39 65 -17 28 -38 61 -48 72 -10 12 -29 36 -43 54 -28 36 -141 152
-181 185 -28 23 -143 102 -178 122 -95 55 -261 122 -332 136 -13 2 -35 7 -49
10 -14 3 -38 9 -55 12 -32 7 -370 15 -376 9z"/>
</g>
</svg>
